<svg width="60" height="40" viewBox="0 0 60 40" xmlns="http://www.w3.org/2000/svg" xmlns:xlink="http://www.w3.org/1999/xlink"><title>bill</title><defs><path id="b" d="M3 1h54v25H3z"/><filter x="-50%" y="-50%" width="200%" height="200%" filterUnits="objectBoundingBox" id="a"><feOffset in="SourceAlpha" result="shadowOffsetOuter1"/><feGaussianBlur stdDeviation=".5" in="shadowOffsetOuter1" result="shadowBlurOuter1"/><feColorMatrix values="0 0 0 0 0 0 0 0 0 0 0 0 0 0 0 0 0 0 0.5 0" in="shadowBlurOuter1"/></filter><path id="d" d="M33 27L0 40V14z"/><filter x="-50%" y="-50%" width="200%" height="200%" filterUnits="objectBoundingBox" id="c"><feOffset dy="-1" in="SourceAlpha" result="shadowOffsetOuter1"/><feGaussianBlur stdDeviation=".5" in="shadowOffsetOuter1" result="shadowBlurOuter1"/><feColorMatrix values="0 0 0 0 0 0 0 0 0 0 0 0 0 0 0 0 0 0 0.5 0" in="shadowBlurOuter1"/></filter><path id="f" d="M60 27L27 40V14z"/><filter x="-50%" y="-50%" width="200%" height="200%" filterUnits="objectBoundingBox" id="e"><feOffset dy="-1" in="SourceAlpha" result="shadowOffsetOuter1"/><feGaussianBlur stdDeviation=".5" in="shadowOffsetOuter1" result="shadowBlurOuter1"/><feColorMatrix values="0 0 0 0 0 0 0 0 0 0 0 0 0 0 0 0 0 0 0.5 0" in="shadowBlurOuter1"/></filter></defs><g fill="none" fill-rule="evenodd"><path fill="#414141" d="M30 0l30 12v4.343H0V12"/><use fill="#000" filter="url(#a)" xlink:href="#b"/><use fill="#FFF" xlink:href="#b"/><use fill="#000" filter="url(#c)" xlink:href="#d"/><use fill="#00DDD4" xlink:href="#d"/><g transform="matrix(-1 0 0 1 87 0)"><use fill="#000" filter="url(#e)" xlink:href="#f"/><use fill="#00DDD4" xlink:href="#f"/></g><path fill="#00DDD4" d="M33 27L0 40V14"/><path fill="#1FF5ED" d="M30 26l30 14H0"/><path d="M17.5 6h16M17.5 10h16M17.5 14h16" stroke="#393939" stroke-width="2"/><path d="M42.39 7.558c-.426-.396-.98-.68-1.824-.68-.843 0-1.757.414-1.757 1.523 0 .93 1.367 1.566 1.778 1.87.412.304 1.948 1.027 1.948 2.21 0 1.392-1.165 1.52-1.948 1.52-.782 0-1.19-.2-2.055-.84M40.5 15.5v-1M40.5 5.5v1" stroke="#393939" stroke-linecap="round"/></g></svg>