<?xml version="1.0" encoding="UTF-8"?>
<svg width="222px" height="119px" viewBox="0 0 222 119" version="1.1" xmlns="http://www.w3.org/2000/svg" xmlns:xlink="http://www.w3.org/1999/xlink">
    <!-- Generator: Sketch 43.2 (39069) - http://www.bohemiancoding.com/sketch -->
    <title>secured-by-rapidssl</title>
    <desc>Created with Sketch.</desc>
    <defs></defs>
    <g id="Page-1" stroke="none" stroke-width="1" fill="none" fill-rule="evenodd">
        <g id="secured-by-rapidssl">
            <g id="Background">
                <rect id="Rectangle" fill="#FFFFFF" x="0" y="23" width="222" height="83"></rect>
                <path d="M13,-4.28606803e-15 C15.0003325,-5.01942238e-15 221.99621,-5.32907052e-15 221.99621,-5.32907052e-15 L221.99621,23.9999576 C221.99621,26.0009251 220.99728,30.0006968 218,33 C214.999811,36.0022143 210.997909,37 208.999366,37 C207.000823,37 4.93238902e-14,37 4.93238902e-14,37 C4.93238902e-14,37 1.42843921e-14,15.1357598 4.93238902e-14,13.0687518 C8.52651283e-14,11.0017437 0.998555671,7.00962219 4,4 C6.99947418,0.992353325 10.9996675,-3.55271368e-15 13,-4.28606803e-15 Z" id="Rectangle-2" fill="#774C2B"></path>
                <path d="M13,85 C15.0003325,85 221.99621,85 221.99621,85 L221.99621,105.999958 C221.99621,108.000925 220.99728,112.000697 218,115 C214.999811,118.002214 210.997909,119 208.999366,119 C207.000823,119 3.01976164e-14,119 3.01976164e-14,119 C3.01976164e-14,119 -5.39855778e-15,100.13576 2.96409403e-14,98.0687518 C6.55821784e-14,96.0017437 0.998555671,92.0096222 4,89 C6.99947418,85.9923533 10.9996675,85 13,85 Z" id="Rectangle-2" fill="#F4C702"></path>
            </g>
            <g id="Secured-by" transform="translate(12.000000, 10.000000)" fill="#FFFFFF">
                <path d="M0.831054688,11.6430664 L4.06542969,11.3286133 C4.26009212,12.4142307 4.65502632,13.211586 5.25024414,13.7207031 C5.84546196,14.2298203 6.64843245,14.484375 7.65917969,14.484375 C8.72982306,14.484375 9.536537,14.2578961 10.0793457,13.8049316 C10.6221544,13.3519671 10.8935547,12.8222687 10.8935547,12.2158203 C10.8935547,11.8264954 10.7793794,11.4951999 10.5510254,11.2219238 C10.3226714,10.9486477 9.92399373,10.7109385 9.35498047,10.5087891 C8.96565561,10.3740228 8.07845745,10.1344418 6.69335937,9.79003906 C4.91144942,9.34830508 3.66113641,8.80550452 2.94238281,8.16162109 C1.93163557,7.25569208 1.42626953,6.1513737 1.42626953,4.84863281 C1.42626953,4.01008695 1.66397874,3.22583373 2.1394043,2.49584961 C2.61482985,1.76586549 3.29988159,1.20996285 4.19458008,0.828125 C5.08927856,0.446287153 6.16926451,0.255371094 7.43457031,0.255371094 C9.50098689,0.255371094 11.0563913,0.708328804 12.1008301,1.61425781 C13.1452689,2.52018682 13.6936846,3.72932187 13.7460937,5.24169922 L10.421875,5.38769531 C10.2796217,4.54166244 9.97453033,3.93335146 9.5065918,3.56274414 C9.03865326,3.19213682 8.33675598,3.00683594 7.40087891,3.00683594 C6.43505376,3.00683594 5.67887643,3.2052389 5.13232422,3.60205078 C4.78043444,3.85660935 4.60449219,4.19726349 4.60449219,4.62402344 C4.60449219,5.0133483 4.76920408,5.34651554 5.09863281,5.62353516 C5.51790574,5.97542494 6.53612473,6.34228325 8.15332031,6.72412109 C9.7705159,7.10595894 10.9665489,7.50089314 11.7414551,7.90893555 C12.5163613,8.31697795 13.1228005,8.87475232 13.560791,9.58227539 C13.9987815,10.2897985 14.2177734,11.1638945 14.2177734,12.2045898 C14.2177734,13.1479539 13.9557318,14.0314086 13.4316406,14.8549805 C12.9075495,15.6785523 12.1663459,16.2906067 11.2080078,16.6911621 C10.2496697,17.0917175 9.05550845,17.2919922 7.62548828,17.2919922 C5.54409767,17.2919922 3.9456436,16.8109586 2.83007812,15.848877 C1.71451265,14.8867953 1.04817817,13.4848725 0.831054688,11.6430664 Z" id="S"></path>
                <polygon id="E" points="21.6733398 17 21.6733398 0.536132812 33.8808594 0.536132812 33.8808594 3.32128906 24.9975586 3.32128906 24.9975586 6.97119141 33.2631836 6.97119141 33.2631836 9.74511719 24.9975586 9.74511719 24.9975586 14.2260742 34.1953125 14.2260742 34.1953125 17"></polygon>
                <path d="M52.2075195,10.9467773 L55.4306641,11.96875 C54.936521,13.765634 54.1148332,15.1001747 52.9655762,15.9724121 C51.8163191,16.8446495 50.3582445,17.2807617 48.5913086,17.2807617 C46.4050997,17.2807617 44.6082427,16.533943 43.2006836,15.0402832 C41.7931245,13.5466234 41.0893555,11.5045702 41.0893555,8.9140625 C41.0893555,6.17381442 41.7968679,4.04566188 43.2119141,2.52954102 C44.6269602,1.01342015 46.4874559,0.255371094 48.793457,0.255371094 C50.8074645,0.255371094 52.4433531,0.850579985 53.7011719,2.04101562 C54.4498735,2.74479519 55.0113914,3.75552727 55.3857422,5.07324219 L52.0952148,5.859375 C51.9005524,5.00585511 51.4943879,4.33203372 50.876709,3.83789062 C50.2590301,3.34374753 49.508468,3.09667969 48.625,3.09667969 C47.4046163,3.09667969 46.4144732,3.53466359 45.654541,4.41064453 C44.8946088,5.28662547 44.5146484,6.70539384 44.5146484,8.66699219 C44.5146484,10.7483828 44.8889937,12.2307899 45.6376953,13.1142578 C46.386397,13.9977258 47.3596945,14.4394531 48.5576172,14.4394531 C49.4410851,14.4394531 50.2010059,14.1586942 50.8374023,13.597168 C51.4737988,13.0356417 51.9304999,12.152187 52.2075195,10.9467773 Z" id="C"></path>
                <path d="M63.6508789,0.536132812 L66.9750977,0.536132812 L66.9750977,9.453125 C66.9750977,10.8681711 67.0162756,11.7853169 67.0986328,12.2045898 C67.2408861,12.8784213 67.5796685,13.4193502 68.1149902,13.8273926 C68.6503119,14.235435 69.3821568,14.4394531 70.3105469,14.4394531 C71.253911,14.4394531 71.9651669,14.2466653 72.4443359,13.861084 C72.923505,13.4755026 73.2117508,13.0019559 73.309082,12.4404297 C73.4064132,11.8789034 73.4550781,10.9467839 73.4550781,9.64404297 L73.4550781,0.536132812 L76.7792969,0.536132812 L76.7792969,9.18359375 C76.7792969,11.1601661 76.689454,12.5564738 76.5097656,13.3725586 C76.3300772,14.1886434 75.9987817,14.8774386 75.5158691,15.4389648 C75.0329566,16.0004911 74.3872111,16.4478336 73.5786133,16.7810059 C72.7700155,17.1141781 71.714362,17.2807617 70.4116211,17.2807617 C68.8393476,17.2807617 67.6470581,17.0992043 66.8347168,16.736084 C66.0223755,16.3729637 65.3803735,15.9012887 64.9086914,15.3210449 C64.4370094,14.7408011 64.1263028,14.1324902 63.9765625,13.4960938 C63.759439,12.5527297 63.6508789,11.1601655 63.6508789,9.31835938 L63.6508789,0.536132812 Z" id="U"></path>
                <path d="M84.6845703,17 L84.6845703,0.536132812 L91.6811523,0.536132812 C93.4406012,0.536132812 94.7189902,0.683999172 95.5163574,0.979736328 C96.3137247,1.27547348 96.9519833,1.80142851 97.4311523,2.55761719 C97.9103214,3.31380586 98.1499023,4.17854331 98.1499023,5.15185547 C98.1499023,6.38721321 97.7867875,7.40730392 97.0605469,8.2121582 C96.3343063,9.01701249 95.5163574,9.33834123 94.198338,9.74266769 C94.8262281,10.4343327 94.9745335,10.6780427 95.7800074,11.8632084 C95.7800074,11.8632084 96.7795604,13.4172602 97.2617737,14.2036224 C97.743987,14.9899846 98.9299927,17 98.9299927,17 L95.5107422,17 L93.1074219,13.4174805 C92.253902,12.1372006 91.6699234,11.3304867 91.3554688,10.9973145 C91.0410141,10.6641422 90.7078468,10.4357916 90.355957,10.3122559 C90.0040673,10.1887201 89.4462929,10.1269531 88.6826172,10.1269531 L88.0087891,10.1269531 L88.0087891,17 L84.6845703,17 Z M88.0087891,7.49902344 L90.4682617,7.49902344 C92.0629963,7.49902344 93.0587545,7.4316413 93.4555664,7.296875 C93.8523783,7.1621087 94.1630848,6.93001467 94.3876953,6.60058594 C94.6123058,6.27115721 94.7246094,5.85937747 94.7246094,5.36523438 C94.7246094,4.81119515 94.576743,4.36385261 94.2810059,4.02319336 C93.9852687,3.6825341 93.5678738,3.46728561 93.0288086,3.37744141 C92.759276,3.34000632 91.9506903,3.32128906 90.6030273,3.32128906 L88.0087891,3.32128906 L88.0087891,7.49902344 Z" id="R"></path>
                <polygon id="E" points="105.67334 17 105.67334 0.536132812 117.880859 0.536132812 117.880859 3.32128906 108.997559 3.32128906 108.997559 6.97119141 117.263184 6.97119141 117.263184 9.74511719 108.997559 9.74511719 108.997559 14.2260742 118.195312 14.2260742 118.195312 17"></polygon>
                <path d="M125.662109,0.536132812 L131.737793,0.536132812 C133.107917,0.536132812 134.15234,0.640949473 134.871094,0.850585938 C135.836919,1.13509257 136.664222,1.64045861 137.353027,2.36669922 C138.041833,3.09293983 138.565916,3.98200971 138.925293,5.03393555 C139.28467,6.08586138 139.464355,7.38296755 139.464355,8.92529297 C139.464355,10.280443 139.2959,11.4484 138.958984,12.4291992 C138.547198,13.6271219 137.959476,14.596676 137.195801,15.3378906 C136.619301,15.8994169 135.840662,16.3374008 134.859863,16.6518555 C134.126136,16.883953 133.145351,17 131.91748,17 L125.662109,17 L125.662109,0.536132812 Z M128.986328,3.32128906 L128.986328,14.2260742 L131.468262,14.2260742 C132.396652,14.2260742 133.06673,14.1736659 133.478516,14.0688477 C134.017581,13.9340814 134.464923,13.7057308 134.820557,13.3837891 C135.17619,13.0618473 135.466307,12.5321489 135.690918,11.7946777 C135.915528,11.0572066 136.027832,10.0520897 136.027832,8.77929688 C136.027832,7.50650405 135.915528,6.52946304 135.690918,5.84814453 C135.466307,5.16682602 135.151857,4.63525582 134.747559,4.25341797 C134.34326,3.87158012 133.830407,3.61328192 133.208984,3.47851562 C132.744789,3.37369739 131.83513,3.32128906 130.47998,3.32128906 L128.986328,3.32128906 Z" id="D"></path>
                <path d="M157.68457,0.536132812 L164.265625,0.536132812 C165.568366,0.536132812 166.539792,0.590412869 167.179932,0.698974609 C167.820072,0.80753635 168.39282,1.03401521 168.898193,1.37841797 C169.403567,1.72282073 169.824705,2.18139362 170.161621,2.75415039 C170.498537,3.32690716 170.666992,3.9689092 170.666992,4.68017578 C170.666992,5.45133849 170.459231,6.15885095 170.043701,6.80273438 C169.628172,7.4466178 169.064782,7.92952313 168.353516,8.25146484 C169.356776,8.54345849 170.127927,9.04133763 170.666992,9.74511719 C171.206057,10.4488967 171.475586,11.2761997 171.475586,12.2270508 C171.475586,12.9757524 171.301515,13.7038539 170.953369,14.411377 C170.605223,15.1189 170.129804,15.6841613 169.5271,16.1071777 C168.924395,16.5301942 168.18132,16.7903641 167.297852,16.8876953 C166.743812,16.9475914 165.4074,16.985026 163.288574,17 L157.68457,17 L157.68457,0.536132812 Z M161.008789,3.27636719 L161.008789,7.08349609 L163.1875,7.08349609 C164.482754,7.08349609 165.287596,7.06477883 165.602051,7.02734375 C166.171064,6.9599606 166.618407,6.76342936 166.944092,6.43774414 C167.269777,6.11205892 167.432617,5.68343365 167.432617,5.15185547 C167.432617,4.64273834 167.292238,4.22908688 167.011475,3.91088867 C166.730711,3.59269047 166.313317,3.39990268 165.759277,3.33251953 C165.429849,3.29508445 164.482755,3.27636719 162.917969,3.27636719 L161.008789,3.27636719 Z M161.008789,9.82373047 L161.008789,14.2260742 L164.085938,14.2260742 C165.28386,14.2260742 166.043781,14.1923831 166.365723,14.125 C166.859866,14.0351558 167.262287,13.8161639 167.572998,13.4680176 C167.883709,13.1198713 168.039062,12.6538115 168.039062,12.0698242 C168.039062,11.5756811 167.919272,11.1564145 167.679688,10.8120117 C167.440103,10.467609 167.093834,10.2167977 166.640869,10.0595703 C166.187905,9.90234296 165.205248,9.82373047 163.692871,9.82373047 L161.008789,9.82373047 Z" id="B"></path>
                <polygon id="Y" points="182.99707 17 182.99707 10.0708008 176.966309 0.536132812 180.863281 0.536132812 184.737793 7.04980469 188.533691 0.536132812 192.363281 0.536132812 186.310059 10.0932617 186.310059 17"></polygon>
            </g>
            <g id="RapidSSL" transform="translate(14.000000, 46.000000)">
                <path d="M5,7 L5,14 L11.1790304,14 C12.7128923,13.9752603 13.5387332,13.9534972 14.5790361,13.212082 C15.4520948,12.5898605 16,11.6751361 16,10.5 C15.9752603,9.0898367 15.4572957,8.29478062 14.5790361,7.66391809 C13.8863243,7.10727468 12.7128912,7 11.4016867,7 L5,7 Z M0,29 L0,2 L15.0012115,2 C19.6943729,2.738885 22,5.99898827 22,9.55175781 C22,13.1045274 19.9388193,17.1764257 16.5,18.5 L22,29 L15.5,29 L10.5,19 L5,19 L5,29 L0,29 Z" id="R" fill="#774C2B"></path>
                <path d="M35,29 L35.078125,27.5 L35,27.5 C34.515197,28.0157593 34.1160794,28.251925 33.3218046,28.5774474 C32.5405507,28.9159908 31.3802152,29 30,29 C27.7343637,28.9739582 26.658104,28.6718809 25.4341395,27.5 C24.1450706,26.3541609 23.0442372,24.7299358 23.0442372,22.096081 C23.0442372,19.4622262 23.853805,18.236547 24.9736023,17.1167497 C26.0933996,15.9709106 27.8385309,15.0260418 30,15 L35,15 C35,13.5 34.2994932,11.6297751 31.5,11.6818586 C30.4843699,11.6818586 28.0821534,11.9918003 26,13.5 L26,9.5 C27.596327,8.06855696 29.2773644,7.50115324 31.5,7.50115324 C34.0520961,7.47511144 36.6223219,8.47036952 38.0783572,9.61151056 C39.08924,10.4037714 39.9739582,12.678373 40,15.1523438 L40,29 L35,29 Z M35,21.5 C35,20.4038722 33.8102291,19 31.4973575,19 C29.1844858,19 27.5,19.8678195 27.5,22 C27.5,22.6901076 27.9622329,23.4770755 28.5742151,23.9588487 C29.1601555,24.4927056 29.6181277,24.7312348 30.9723012,24.7312348 C32.6780389,24.7572766 32.9896708,24.3885384 33.6927993,23.9588487 C34.3308234,23.5291591 35,22.6945309 35,21.5 Z" id="a" fill="#774C2B"></path>
                <path d="M43,35.9972387 L43,8 L48,8 L48,10.0196996 C49.2864648,8.58479661 50.9576165,8 53,8 C55.0423835,8 57.2929807,8.9639969 58.0922928,10.0196996 C58.8916049,11.0754023 59.5533277,11.9985251 59.9795434,12.9544217 C60.4057592,13.9103183 61.0085632,15.6895876 61.0085632,18.0274899 C61.0085632,20.303543 60.9296752,21.2799508 60.6269531,22.2843481 C60.324231,23.2887453 59.6420841,24.9463723 58.9755705,25.9485802 C58.3090568,26.9507881 57.0260494,27.8844759 56.1601596,28.3297906 C55.3066398,28.7874752 54.9427766,28.9972387 53,28.9972387 C51.0572234,28.9972387 49.24241,28.9077101 48,27.9972387 L48,33.9972387 L43,35.9972387 Z M52.0478605,24.0250201 C52.9632296,24.0250201 53.6517281,23.7581575 54.082307,23.4683795 C54.5128858,23.1786015 54.8748234,22.7633042 55.0974808,22.2066608 C55.3448779,21.6252777 55.6198707,20.9157847 55.7064597,20.2107031 C55.7930487,19.5056214 55.8341791,18.8303352 55.8341791,18.1005138 C55.8341791,17.3335829 55.8341791,16.5999504 55.7064597,15.8317968 C55.5787403,15.0636432 55.5605082,14.9195782 55.3131111,14.3629347 C55.0904537,13.7815516 54.7131789,13.3238739 54.1812752,12.9898879 C53.6493715,12.6806415 52.9257459,12.5260207 52.0103767,12.5260207 C51.144487,12.5260207 50.4579704,12.7053809 49.9508064,13.0641066 C49.4189027,13.4228324 49.0292582,13.8928798 48.7818611,14.4742629 C48.5468339,15.055646 48.5376991,15.1514549 48.46348,15.8317968 C48.3892609,16.5492483 48.3521518,17.2728739 48.3521518,18.0026953 C48.3521518,18.6830372 48.3892609,19.363369 48.46348,20.0437109 C48.5376991,20.7611624 48.5843176,21.4768402 48.8193448,22.0582233 C49.0667419,22.6396064 49.4563864,23.1096538 49.9882901,23.4683795 C50.4954541,23.8394751 51.1819707,24.0250201 52.0478605,24.0250201 Z" id="p" fill="#774C2B"></path>
                <path d="M63,29 L69,29 L69,8 L63,8 L63,29 Z M64.0585625,6 C64.4836316,6.3416271 65,6.5 66,6.5 C67,6.5 67.6919595,6.23108643 67.9800698,6 C68.26818,5.76891357 69,4.75 69,3.5 C69,2.25 68.5629093,1.62344833 68.1008589,1.19332003 C67.6388085,0.763191729 67,0.5 66,0.5 C65,0.5 64.3086096,0.832251362 63.9366445,1.19332003 C63.5646794,1.5543887 63,2.25 63,3.5 C63,4.75 63.6334934,5.6583729 64.0585625,6 Z" id="i" fill="#774C2B"></path>
                <path d="M84,27 C82.5315454,28.3561114 81.0270751,29.0494794 79,29 C76.9729249,28.9505206 74.918444,27.7543709 74,27 C73.081556,26.2456291 72.3685004,25.0451081 72,24 C71.6314996,22.9548919 71.3255314,20.7697406 71.3255314,18.6190309 C71.3255314,16.4683212 71.5959777,13.526174 72.2437639,12.2692743 C72.8915501,11.0123746 74.3602572,9.36672505 74.9632823,8.97699342 C75.5663075,8.58726178 76.6497278,8.06184927 79,8 C81.3502722,7.93815073 82.3880865,8.37823428 84,9 L84,2 L89,0 L89,29 L84,29 L84,27 Z M80.2236328,12.3769531 C79.3082637,12.3769531 78.6093774,12.531574 78.1269531,12.8408203 C77.5950494,13.1748064 77.1965566,13.761104 76.8999939,14.2138672 C76.6034312,14.6666304 76.3242191,15.4261034 76.25,16.1064453 C76.1757809,16.8362667 76.1000061,17.5846316 76.1000061,18.3515625 C76.1000061,19.0813839 76.1757809,19.7926398 76.25,20.4853516 C76.3242191,21.2151729 76.5656286,21.8299304 76.8999939,22.4521484 C77.2343592,23.0743665 77.5950494,23.4664696 78.1269531,23.8251953 C78.6093774,24.1715512 79.3082637,24.3447266 80.2236328,24.3447266 C81.139002,24.3447266 81.8626275,24.1591815 82.3945312,23.7880859 C82.926435,23.4293602 83.2913402,22.9593128 83.4892578,22.3779297 C83.7366549,21.7965466 83.9036454,21.147139 83.9902344,20.4296875 C84.0149741,19.7246058 84.0273438,19.0319044 84.0273438,18.3515625 C84.0273438,17.6093713 84.0149741,16.8981154 83.9902344,16.2177734 C83.9036454,15.5374315 83.7366549,14.9065784 83.4892578,14.3251953 C83.2913402,13.7438122 82.926435,13.2737648 82.3945312,12.9150391 C81.8626275,12.5563133 81.139002,12.3769531 80.2236328,12.3769531 Z" id="d" fill="#774C2B"></path>
                <path d="M95,21 L91,24 C94.3773687,27.4880316 97.9921675,29 102,29 C108.197297,28.9257809 112.363932,25.6705988 112.5,20.5 C112.5,18.5826727 112.194931,16.9472729 110.995055,15.5 C109.782809,14.0279874 107.977116,13.4192912 106,13 C104.724425,12.729486 103.993571,12.4954614 102,12 C100.006429,11.5045386 98,10.8036623 98,9 C98,7.19633772 99,6.046875 102,6.046875 C104.619782,6.046875 106,7.09606847 108.001838,9 L111.5,5.5 C109.376907,2.71007992 106.24043,1 102,1 C98.2955474,1 96.4817047,1.56733285 95,3 C93.5182953,4.43266715 92.5,6.53276119 92.5,9 C92.5,11.4672388 93.7584329,13.7951098 95.2250327,14.8298096 C96.6916325,15.8645094 98.6744675,16.6165345 101,17 C103.325532,17.3834655 103.409938,17.3596673 104.440816,17.7660284 C105.471694,18.1723894 107.02474,18.9837139 107,21 C106.950521,23.4616008 104.440816,24 102.5,24 C99.5311771,24 97.1523545,22.7688891 95,21 Z" id="S" fill="#EC501F"></path>
                <path d="M117.544237,21 L113.544237,24 C116.921606,27.4880316 120.536405,29 124.544237,29 C130.741534,28.9257809 134.908169,25.6705988 135.044237,20.5 C135.044237,18.5826727 134.739168,16.9472729 133.539292,15.5 C132.327046,14.0279874 130.521353,13.4192912 128.544237,13 C127.268662,12.729486 126.537808,12.4954614 124.544237,12 C122.550666,11.5045386 120.544237,10.8036623 120.544237,9 C120.544237,7.19633772 121.544237,6.046875 124.544237,6.046875 C127.164019,6.046875 128.544237,7.09606847 130.546075,9 L134.044237,5.5 C131.921144,2.71007992 128.784667,1 124.544237,1 C120.839785,1 119.025942,1.56733285 117.544237,3 C116.062532,4.43266715 115.044237,6.53276119 115.044237,9 C115.044237,11.4672388 116.30267,13.7951098 117.76927,14.8298096 C119.23587,15.8645094 121.218705,16.6165345 123.544237,17 C125.86977,17.3834655 125.954176,17.3596673 126.985054,17.7660284 C128.015931,18.1723894 129.568977,18.9837139 129.544237,21 C129.494758,23.4616008 126.985054,24 125.044237,24 C122.075414,24 119.696592,22.7688891 117.544237,21 Z" id="S" fill="#EC501F"></path>
                <polygon id="L" fill="#EC501F" points="138.5 28.5527344 153.5 28.5 150.5 23.5 144.600586 23.5 144.600586 1.5 138.5 1.5"></polygon>
            </g>
            <g id="Lock" transform="translate(180.000000, 39.000000)" fill="#774C2B">
                <rect id="Rectangle-3" x="0.5" y="37" width="41" height="7" rx="3.5"></rect>
                <rect id="Rectangle-3" x="0.5" y="28" width="41" height="7" rx="3.5"></rect>
                <rect id="Rectangle-3" x="0.5" y="19" width="41" height="7" rx="3.5"></rect>
                <path d="M6.5,19 C6.5,5.97322938 11.0149966,7.10542736e-15 21,7.10542736e-15 C30.9850034,7.10542736e-15 35.5,6.05110343 35.5,19 C33.8144715,19 31.7761298,19.0066054 30,19 C30,7.16512589 25.0784632,5.5 21,5.5 C16.9215368,5.5 12,7.1667466 12,19 C10.5279543,19 7.805685,19.0066054 6.5,19 Z" id="Path-2"></path>
            </g>
            <text id="www.rapidssl.com" font-family="ArialMT, Arial" font-size="23" font-weight="normal" fill="#774C2B">
                <tspan x="18.5" y="110">www.rapidssl.com</tspan>
            </text>
        </g>
    </g>
</svg>