<?xml version="1.0" encoding="UTF-8"?>
<svg width="191px" height="83px" viewBox="0 0 191 83" version="1.1" xmlns="http://www.w3.org/2000/svg" xmlns:xlink="http://www.w3.org/1999/xlink">
    <!-- Generator: Sketch 43.2 (39069) - http://www.bohemiancoding.com/sketch -->
    <title>VbyV_en_2c</title>
    <desc>Created with Sketch.</desc>
    <defs></defs>
    <g id="Page-1" stroke="none" stroke-width="1" fill="none" fill-rule="evenodd">
        <g id="VbyV_en_2c">
            <path d="M77.453,44.234 L67.928,69.921 L66.912,64.702 C64.54,58.302 59.404,51.588 53.423,48.867 L62.137,81.851 L72.438,81.846 L87.757,44.234 L77.453,44.234" id="Fill-1" fill="#1B548E"></path>
            <polyline id="Fill-2" fill="#1B548E" points="85.617 81.888 91.707 44.198 101.438 44.198 95.345 81.888 85.617 81.888"></polyline>
            <path d="M130.649,45.127 C128.726,44.367 125.692,43.541 121.928,43.541 C112.301,43.541 105.538,48.658 105.479,55.977 C105.417,61.398 110.315,64.422 113.997,66.223 C117.797,68.066 119.066,69.249 119.054,70.898 C119.017,73.423 116.014,74.574 113.223,74.574 C109.333,74.574 107.26,74.006 104.071,72.604 L102.807,72.003 L101.445,80.438 C103.722,81.488 107.925,82.398 112.294,82.445 C122.51,82.445 129.157,77.386 129.236,69.574 C129.277,65.274 126.677,62.019 121.057,59.332 C117.665,57.585 115.567,56.427 115.598,54.656 C115.601,53.092 117.358,51.416 121.174,51.416 C124.361,51.363 126.653,52.094 128.457,52.865 L129.325,53.297 L130.649,45.127" id="Fill-3" fill="#1B548E"></path>
            <path d="M155.608,44.237 L148.09,44.237 C145.759,44.237 144.012,44.901 142.983,47.365 L128.537,81.9 L138.758,81.9 C138.758,81.9 140.429,77.252 140.807,76.233 C141.922,76.233 151.849,76.256 153.266,76.256 C153.567,77.57 154.451,81.9 154.451,81.9 L163.488,81.9 L155.608,44.237 Z M143.607,68.524 C144.415,66.361 147.484,57.989 147.484,57.989 C147.424,58.091 148.282,55.809 148.778,54.398 L149.426,57.647 C149.426,57.647 151.296,66.641 151.686,68.524 L143.607,68.524 L143.607,68.524 Z" id="Fill-4" fill="#1B548E"></path>
            <path d="M59.092,44.215 L43.397,44.215 L43.305,44.864 C55.508,47.985 63.56,55.649 66.912,64.712 L63.501,47.39 C62.915,45.007 61.207,44.299 59.092,44.215" id="Fill-5" fill="#E89F3E"></path>
            <polyline id="Fill-6" fill="#1B548E" points="13.958 35.107 7.752 35.107 0.593 2.838 7.452 1.691 12.35 26.945 24.826 2.025 31.414 2.025 13.958 35.107"></polyline>
            <path d="M46.23,24.558 L31.431,24.558 C31.027,29.045 33.112,31.003 36.645,31.003 C39.605,31.003 42.209,29.904 45.011,28.138 L44.989,32.625 C42.241,34.344 39.065,35.442 35.341,35.442 C28.897,35.442 24.641,31.766 25.92,23.459 C27.073,15.965 32.258,11.431 38.273,11.431 C45.195,11.431 47.497,16.634 46.491,23.174 C46.418,23.651 46.281,24.224 46.23,24.558 Z M37.521,15.393 C35.229,15.393 33.088,17.206 32.078,20.978 L41.243,20.978 C41.412,17.397 40.289,15.393 37.521,15.393 L37.521,15.393 Z" id="Fill-7" fill="#1B548E"></path>
            <path d="M55.876,21.742 L53.841,34.965 L48.113,34.965 L51.661,11.907 L56.531,11.907 L56.534,16.538 C58.473,13.865 61.11,11.622 64.719,11.431 L64.752,17.111 C61.135,17.35 57.881,19.259 55.876,21.742" id="Fill-8" fill="#1B548E"></path>
            <path d="M64.677,34.965 L68.226,11.907 L73.954,11.907 L70.406,34.965 L64.677,34.965 Z M71.733,8.041 C69.824,8.041 68.502,6.704 68.796,4.795 C69.097,2.838 70.838,1.453 72.747,1.453 C74.609,1.453 75.923,2.838 75.622,4.795 C75.328,6.704 73.595,8.041 71.733,8.041 L71.733,8.041 Z" id="Fill-9" fill="#1B548E"></path>
            <path d="M89.819,5.606 C87.861,5.606 86.679,6.465 86.363,8.519 L85.841,11.907 L90.233,11.907 L90.229,16.585 L85.121,16.585 L82.292,34.965 L76.612,34.965 L79.441,16.585 L76.099,16.585 L76.819,11.907 L80.16,11.907 L80.77,7.945 C81.556,2.838 85.096,0.928 89.822,0.928 C90.825,0.928 91.574,1.024 92.133,1.119 L92.176,5.797 C91.617,5.702 90.773,5.606 89.819,5.606" id="Fill-10" fill="#1B548E"></path>
            <path d="M89.881,34.965 L93.43,11.907 L99.158,11.907 L95.61,34.965 L89.881,34.965 Z M96.937,8.041 C95.028,8.041 93.706,6.704 94,4.795 C94.301,2.838 96.042,1.453 97.951,1.453 C99.813,1.453 101.128,2.838 100.827,4.795 C100.533,6.704 98.799,8.041 96.937,8.041 L96.937,8.041 Z" id="Fill-11" fill="#1B548E"></path>
            <path d="M121.368,24.558 L106.569,24.558 C106.165,29.045 108.25,31.003 111.783,31.003 C114.743,31.003 117.346,29.904 120.149,28.138 L120.126,32.625 C117.379,34.344 114.202,35.442 110.478,35.442 C104.034,35.442 99.779,31.766 101.057,23.459 C102.211,15.965 107.396,11.431 113.411,11.431 C120.333,11.431 122.635,16.634 121.629,23.174 C121.555,23.651 121.419,24.224 121.368,24.558 Z M112.658,15.393 C110.366,15.393 108.225,17.206 107.216,20.978 L116.381,20.978 C116.55,17.397 115.426,15.393 112.658,15.393 L112.658,15.393 Z" id="Fill-12" fill="#1B548E"></path>
            <path d="M138.336,34.965 L138.35,31.766 C136.425,33.724 133.918,35.442 130.719,35.442 C125.897,35.442 122.583,31.862 123.78,24.08 C125.102,15.488 130.416,11.669 135.762,11.669 C137.959,11.669 139.667,12.051 140.977,12.528 L142.689,1.405 L148.557,0.499 L143.253,34.965 L138.336,34.965 Z M140.25,17.254 C138.921,16.585 137.874,16.251 135.917,16.251 C132.909,16.251 130.339,18.686 129.56,23.747 C128.87,28.233 130.456,30.334 132.986,30.334 C135.086,30.334 136.9,29.094 138.721,27.184 L140.25,17.254 L140.25,17.254 Z" id="Fill-13" fill="#1B548E"></path>
            <path d="M160.801,35.182 C158.089,35.182 155.879,34.747 153.821,34.025 L157.589,9.545 L162.033,8.857 L160.403,19.452 C161.702,18.295 163.507,17.138 165.713,17.138 C169.401,17.138 171.871,19.887 170.969,25.744 C169.979,32.18 166.009,35.182 160.801,35.182 Z M164.002,20.97 C162.555,20.97 161.103,21.947 159.818,23.25 L158.599,31.168 C159.454,31.493 160.046,31.638 161.275,31.638 C164.023,31.638 165.943,29.975 166.555,25.997 C167.073,22.634 165.955,20.97 164.002,20.97 L164.002,20.97 Z" id="Fill-14" fill="#1B548E"></path>
            <path d="M181.192,35.905 C178.975,40.208 176.781,41.546 173.418,41.546 C172.658,41.546 172.236,41.473 171.855,41.365 L171.827,37.785 C172.384,37.93 172.981,38.038 173.813,38.038 C175.079,38.038 176.18,37.46 176.918,36.194 L177.493,35.037 L173.814,17.825 L178.424,17.247 L180.559,29.685 L186.34,17.5 L190.643,17.5 L181.192,35.905" id="Fill-15" fill="#1B548E"></path>
        </g>
    </g>
</svg>